# xmcd
#
# Track frame offsets:
#	150
#	10197
#	23882
#	38985
#	52630
#	71580
#
# Disc length: 1089 seconds
#
# Revision: 0
# Processed by: cddbd v1.5.2PL0 Copyright (c) Steve Scherf et al.
# Submitted via: EZCDAudioConverter 3.1.0.1
#
DISCID=40043f06
DTITLE=汽車廣告嘉年華 Bonus CD
DYEAR=1900
DGENRE=
TTITLE0=Jeff Flick - What A Wonderful World
TTITLE1=Roger Sauyer - Going Back Home Again
TTITLE2=Chris Adler - Take Me Home Country Road
TTITLE3=Garrie Bessman - All The High
TTITLE4=Chee Nathan - Joyride
TTITLE5=Kwan Lichtman - Wooly Bully
EXTD=
EXTT0=
EXTT1=
EXTT2=
EXTT3=
EXTT4=
EXTT5=
PLAYORDER=
